# xmcd
#
# Track frame offsets:
#	150
#	15920
#	30980
#	46110
#	61572
#	76722
#	91282
#	106492
#	121695
#	137450
#	151772
#	167022
#	182225
#	196297
#	211152
#
# Disc length: 3003 seconds
#
# Revision: 0
# Processed by: cddbd v1.5.2PL0 Copyright (c) Steve Scherf et al.
# Submitted via: EasyCDDAExtractor 16.0.8.2
#
DISCID=a00bb90f
DTITLE=Συλλογικός δίσκος - Ρεμπέτικα νησιώτικα
DYEAR=1997
DGENRE=Ποικίλη
TTITLE0=Περδικόπουλος Δημήτρης - Όμπι όμπι μπι [1937]
TTITLE1=Αμπατζή Ρίτα - Σαν περνούσα από την Χίο [1939], συρτό, Γ.Δερέμπεης-Π.Τ
TTITLE1=ούντας]
TTITLE2=Ρεμούνδος Σταύρος ή Μαρμαράς - Χίλιες να δουν τα μάτια μου (Μπάλλος )[
TTITLE2=1937-38]
TTITLE3=Ρούκουνας Κώστας ή Σαμιωτάκης - Τα νησιά [1939, Κ. Ρούκουνας]
TTITLE4=Μοσχονάς Οδυσσέας-Περπινιάδης Στελλάκης - Ανοιχτά παίζει η σαρδέλλα [1
TTITLE4=940, Στελλ. Περπινιάδης]
TTITLE5=Αμπατζή Ρίτα - Το πουλί [1938]
TTITLE6=Ρούκουνας Κώστας ή Σαμιωτάκης - Βάρκα θα σκαρώσω (Ο Ωρωπός)
TTITLE7=Άνευ ερμηνευτού - Μπαμ [1950, ζεϊμπέκ., ορχήστρα Πάγγη USA]
TTITLE8=Ρούκουνας Κώστας ή Σαμιωτάκης - Ο ξένος μέσ' στην ξενητειά [1939, σούσ
TTITLE8=τα, Κ. Ρούκουνας]
TTITLE9=Αμπατζή Ρίτα - Θάλασσα μπαμπέσα [1937]
TTITLE10=Πασαλάρη Σούλα-Περπινιάδης Στελλάκης - Μάτια σαν και τα δικά σου (Μπά
TTITLE10=λλος)[1946, USA]
TTITLE11=Αμπατζή Ρίτα - Τ' αποφάσισα πουλί μου [1937-38, Δημ. Σέμσης-Σ. Περπιν
TTITLE11=ιάδης]
TTITLE12=Περπινιάδης Στελλάκης-Χρυσίνης Στέλιος - Ήθελα να πότιζα την λεμονιά 
TTITLE12=[1938-39, Στ.Περπινιάδης-Π.Τούντας]
TTITLE13=Αμπατζή Ρίτα - Δεν ημπορώ να κλαίω πια (Μπάλλος)[1934]
TTITLE14=Περδικόπουλος Δημήτρης - Όσοι γυρνούν τις θάλασσες [1946-47, συρτός]
EXTD=ID3G:  48\n
EXTT0=
EXTT1=
EXTT2=
EXTT3=
EXTT4=
EXTT5=
EXTT6=
EXTT7=
EXTT8=
EXTT9=
EXTT10=
EXTT11=
EXTT12=
EXTT13=
EXTT14=
PLAYORDER=
